<svg width="22" height="22" viewBox="0 0 22 22" fill="none" xmlns="http://www.w3.org/2000/svg">
<path d="M2.75 0C2.02065 0 1.32118 0.289731 0.805456 0.805456C0.289731 1.32118 0 2.02065 0 2.75L0 19.25C0 19.9793 0.289731 20.6788 0.805456 21.1945C1.32118 21.7103 2.02065 22 2.75 22H19.25C19.9793 22 20.6788 21.7103 21.1945 21.1945C21.7103 20.6788 22 19.9793 22 19.25V2.75C22 2.02065 21.7103 1.32118 21.1945 0.805456C20.6788 0.289731 19.9793 0 19.25 0L2.75 0ZM7.557 8.29537C7.51268 8.29598 7.4687 8.28753 7.42775 8.27055C7.38681 8.25357 7.34976 8.22841 7.31887 8.19662C7.28798 8.16483 7.2639 8.12707 7.2481 8.08566C7.23231 8.04424 7.22513 8.00004 7.227 7.95575C7.35625 5.62512 9.26338 4.8125 11.0069 4.8125C12.9264 4.8125 14.6809 5.81625 14.6809 7.8925C14.6809 9.3775 13.8077 10.0842 12.9704 10.7209C11.957 11.4895 11.5816 11.7769 11.5816 12.7641V12.9085C11.5816 12.9997 11.5454 13.0871 11.4809 13.1516C11.4165 13.216 11.329 13.2522 11.2379 13.2522H10.1241C10.0339 13.2523 9.94729 13.2168 9.88298 13.1535C9.81867 13.0902 9.78182 13.0042 9.78037 12.914L9.77488 12.6156C9.72263 11.341 10.4555 10.5559 11.3809 9.8835C12.1921 9.273 12.7077 8.8715 12.7077 7.99837C12.7077 6.864 11.8442 6.39237 10.901 6.39237C9.79688 6.39237 9.17813 7.04962 9.05575 7.95162C9.031 8.14 8.87975 8.29537 8.69 8.29537H7.55562H7.557ZM10.7539 17.1545C9.95088 17.1545 9.3665 16.6127 9.3665 15.8799C9.3665 15.1209 9.95088 14.5874 10.7552 14.5874C11.5926 14.5874 12.1688 15.1209 12.1688 15.8799C12.1688 16.6127 11.5913 17.1545 10.7539 17.1545Z" fill="white"/>
</svg>
