<svg width="22" height="25" viewBox="0 0 22 25" fill="none" xmlns="http://www.w3.org/2000/svg">
<path d="M16.797 2.07655e-08C17.4934 -8.55385e-05 18.1639 0.264226 18.673 0.739517C19.1821 1.21481 19.4918 1.86564 19.5394 2.56047L19.5455 2.74737V15.1197C19.399 15.2174 19.2585 15.3323 19.129 15.4618L14.9646 19.625L13.8553 18.5133C13.3676 18.0243 12.7131 17.7376 12.023 17.7107H14.9646C15.2076 17.7107 15.4406 17.6142 15.6124 17.4424C15.7842 17.2705 15.8808 17.0375 15.8808 16.7945C15.8808 16.5515 15.7842 16.3185 15.6124 16.1467C15.4406 15.9748 15.2076 15.8783 14.9646 15.8783H8.85169C8.6087 15.8783 8.37566 15.9748 8.20384 16.1467C8.03202 16.3185 7.93549 16.5515 7.93549 16.7945C7.93549 17.0375 8.03202 17.2705 8.20384 17.4424C8.37566 17.6142 8.6087 17.7107 8.85169 17.7107H11.7994C11.266 17.7326 10.7505 17.9093 10.3158 18.2193C9.88117 18.5293 9.54622 18.9592 9.35188 19.4565C9.15755 19.9537 9.11223 20.4968 9.22146 21.0194C9.3307 21.542 9.58976 22.0214 9.96701 22.3992L11.9924 24.4307H2.74859C2.05213 24.4308 1.3816 24.1665 0.872521 23.6912C0.363443 23.2159 0.0537773 22.5651 0.00610814 21.8702L2.07656e-08 21.6821V2.74859C-8.55385e-05 2.05213 0.264226 1.3816 0.739517 0.872521C1.21481 0.363442 1.86564 0.0537773 2.56047 0.00610814L2.74859 2.07655e-08H16.797ZM6.10798 7.02418C6.10798 6.70019 5.97928 6.38948 5.75019 6.16038C5.52109 5.93129 5.21037 5.80258 4.88639 5.80258C4.5624 5.80258 4.25168 5.93129 4.02259 6.16038C3.79349 6.38948 3.66479 6.70019 3.66479 7.02418C3.66479 7.34817 3.79349 7.65889 4.02259 7.88798C4.25168 8.11707 4.5624 8.24578 4.88639 8.24578C5.21037 8.24578 5.52109 8.11707 5.75019 7.88798C5.97928 7.65889 6.10798 7.34817 6.10798 7.02418ZM8.85169 6.10676C8.6087 6.10676 8.37566 6.20329 8.20384 6.37511C8.03202 6.54693 7.93549 6.77997 7.93549 7.02296C7.93549 7.26595 8.03202 7.49899 8.20384 7.67081C8.37566 7.84263 8.6087 7.93916 8.85169 7.93916H14.9646C15.2076 7.93916 15.4406 7.84263 15.6124 7.67081C15.7842 7.49899 15.8808 7.26595 15.8808 7.02296C15.8808 6.77997 15.7842 6.54693 15.6124 6.37511C15.4406 6.20329 15.2076 6.10676 14.9646 6.10676H8.85169ZM7.93549 11.9093C7.93549 12.4151 8.34595 12.8255 8.85169 12.8255H14.9646C15.0849 12.8255 15.204 12.8018 15.3152 12.7558C15.4263 12.7098 15.5273 12.6423 15.6124 12.5572C15.6975 12.4721 15.765 12.3711 15.811 12.26C15.8571 12.1488 15.8808 12.0297 15.8808 11.9093C15.8808 11.789 15.8571 11.6699 15.811 11.5587C15.765 11.4476 15.6975 11.3466 15.6124 11.2615C15.5273 11.1764 15.4263 11.1089 15.3152 11.0629C15.204 11.0168 15.0849 10.9931 14.9646 10.9931H8.85169C8.6087 10.9931 8.37566 11.0897 8.20384 11.2615C8.03202 11.4333 7.93549 11.6664 7.93549 11.9093ZM6.10798 11.9093C6.10798 11.5854 5.97928 11.2746 5.75019 11.0455C5.52109 10.8165 5.21037 10.6878 4.88639 10.6878C4.5624 10.6878 4.25168 10.8165 4.02259 11.0455C3.79349 11.2746 3.66479 11.5854 3.66479 11.9093C3.66479 12.2333 3.79349 12.5441 4.02259 12.7731C4.25168 13.0022 4.5624 13.1309 4.88639 13.1309C5.21037 13.1309 5.52109 13.0022 5.75019 12.7731C5.97928 12.5441 6.10798 12.2333 6.10798 11.9093ZM6.10798 16.7933C6.10798 16.4693 5.97928 16.1586 5.75019 15.9295C5.52109 15.7004 5.21037 15.5717 4.88639 15.5717C4.5624 15.5717 4.25168 15.7004 4.02259 15.9295C3.79349 16.1586 3.66479 16.4693 3.66479 16.7933C3.66479 17.1173 3.79349 17.428 4.02259 17.6571C4.25168 17.8862 4.5624 18.0149 4.88639 18.0149C5.21037 18.0149 5.52109 17.8862 5.75019 17.6571C5.97928 17.428 6.10798 17.1173 6.10798 16.7933ZM14.9646 22.2184L20.4251 16.7579C20.5097 16.6704 20.6108 16.6006 20.7226 16.5527C20.8344 16.5047 20.9546 16.4795 21.0763 16.4785C21.1979 16.4775 21.3186 16.5007 21.4311 16.5469C21.5437 16.593 21.646 16.6611 21.732 16.7471C21.8179 16.8332 21.8859 16.9355 21.9319 17.0481C21.978 17.1608 22.0011 17.2814 22 17.4031C21.9988 17.5247 21.9735 17.6449 21.9254 17.7567C21.8774 17.8684 21.8075 17.9695 21.72 18.054L15.612 24.162C15.4402 24.3335 15.2074 24.4299 14.9646 24.4299C14.7218 24.4299 14.4889 24.3335 14.3171 24.162L11.2631 21.1067C11.1013 20.9331 11.0132 20.7034 11.0174 20.466C11.0216 20.2286 11.1177 20.0022 11.2856 19.8343C11.4534 19.6664 11.6799 19.5703 11.9173 19.5661C12.1546 19.5619 12.3843 19.65 12.558 19.8119L14.9646 22.2184Z" fill="white"/>
</svg>
