<svg width="23" height="27" viewBox="0 0 23 27" fill="none" xmlns="http://www.w3.org/2000/svg">
<path d="M21.7806 5.06185C21.6826 4.94991 21.5625 4.8594 21.4279 4.79599C21.2933 4.73258 21.147 4.69764 20.9983 4.69334C18.6876 4.63293 15.7637 2.16213 13.8306 1.19254C12.6364 0.595477 11.8481 0.201799 11.256 0.0980942C11.1358 0.0805776 11.0137 0.0809169 10.8936 0.099101C10.3016 0.202806 9.51319 0.596483 8.32008 1.19354C6.38693 2.16213 3.46305 4.63293 1.15234 4.69334C1.00349 4.69786 0.857166 4.7329 0.722421 4.79629C0.587676 4.85968 0.467387 4.95006 0.369009 5.06185C0.165096 5.29255 0.0598864 5.59408 0.0760168 5.90156C0.572392 15.9932 4.19201 22.2387 10.5432 25.8683C10.7083 25.962 10.8916 26.0103 11.0738 26.0103C11.256 26.0103 11.4393 25.962 11.6054 25.8683C17.9566 22.2387 21.5752 15.9932 22.0726 5.90156C22.0897 5.59413 21.9847 5.29237 21.7806 5.06185ZM16.7303 9.03084L11.3708 16.9396C11.1785 17.2236 10.8765 17.4118 10.5774 17.4118C10.2774 17.4118 9.94412 17.2477 9.73369 17.0373L5.956 13.2586C5.83267 13.1348 5.76342 12.9672 5.76342 12.7924C5.76342 12.6177 5.83267 12.45 5.956 12.3263L6.88935 11.3909C7.0134 11.268 7.18093 11.1991 7.35552 11.1991C7.53011 11.1991 7.69764 11.268 7.82169 11.3909L10.2784 13.8476L14.5464 7.54776C14.6452 7.40359 14.797 7.30436 14.9686 7.27172C15.1403 7.23909 15.3179 7.2757 15.4627 7.37357L16.5551 8.11461C16.6994 8.2132 16.7988 8.36491 16.8317 8.53659C16.8645 8.70827 16.828 8.88596 16.7303 9.03084Z" fill="white"/>
</svg>
