<svg width="22" height="22" viewBox="0 0 22 22" fill="none" xmlns="http://www.w3.org/2000/svg">
<path d="M17.4378 15.5623C17.0084 15.151 16.5906 14.728 16.1847 14.2936C15.8437 13.9471 15.6383 13.695 15.6383 13.695L13.0717 12.4694C14.0993 11.304 14.6664 9.80375 14.6667 8.25001C14.6667 4.71259 11.7883 1.83334 8.25001 1.83334C4.71168 1.83334 1.83334 4.71259 1.83334 8.25001C1.83334 11.7874 4.71168 14.6667 8.25001 14.6667C9.86609 14.6667 11.3392 14.0617 12.4694 13.0726L13.695 15.6393C13.695 15.6393 13.9471 15.8446 14.2936 16.1856C14.6483 16.5183 15.1149 16.9684 15.5623 17.4387L16.8071 18.7147L17.3608 19.3068L19.305 17.3626L18.7128 16.8089C18.3654 16.4679 17.9016 16.0151 17.4378 15.5623ZM8.25001 12.8333C5.72276 12.8333 3.66668 10.7773 3.66668 8.25001C3.66668 5.72276 5.72276 3.66668 8.25001 3.66668C10.7773 3.66668 12.8333 5.72276 12.8333 8.25001C12.8333 10.7773 10.7773 12.8333 8.25001 12.8333Z" fill="black"/>
</svg>
