<svg width="22" height="22" viewBox="0 0 22 22" fill="none" xmlns="http://www.w3.org/2000/svg">
<path d="M2.06246 0C0.921234 0 0 0.921234 0 2.05971V19.9083C0 21.0468 0.922609 21.968 2.06246 21.968H3.43744C4.57455 21.968 5.49853 21.0468 5.49853 19.9083V2.05971C5.49853 0.921234 4.57455 0 3.43607 0H2.06109H2.06246ZM8.9346 0C7.79612 0 6.87213 0.921234 6.87213 2.05971V19.9083C6.87213 21.0468 7.79612 21.968 8.9346 21.968H10.3096C11.4481 21.968 12.3707 21.0468 12.3707 19.9083V2.05971C12.3707 0.922609 11.4481 0 10.3082 0H8.93322H8.9346ZM18.8619 5.71578C18.7991 5.44359 18.6816 5.187 18.5167 4.96157C18.3517 4.73615 18.1427 4.54658 17.9022 4.40438C17.6618 4.26217 17.395 4.17029 17.118 4.13431C16.8409 4.09833 16.5595 4.11899 16.2907 4.19505L15.2664 4.4838C14.7659 4.62529 14.3375 4.95085 14.0672 5.39513C13.7968 5.83941 13.7046 6.36951 13.8089 6.87901L16.563 20.3524C16.6192 20.6255 16.7303 20.8843 16.8894 21.1133C17.0485 21.3422 17.2524 21.5366 17.4888 21.6845C17.7251 21.8324 17.989 21.9309 18.2645 21.9739C18.54 22.017 18.8213 22.0037 19.0915 21.935L20.4459 21.5913C21.5321 21.3163 22.1976 20.2245 21.9474 19.1342L18.8619 5.7144V5.71578Z" fill="white"/>
</svg>
