<svg width="22" height="18" viewBox="0 0 22 18" fill="none" xmlns="http://www.w3.org/2000/svg">
<path d="M14.8362 15.4908L12.617 13.2701C11.7588 13.577 10.8311 13.6338 9.94183 13.434C9.05258 13.2342 8.23835 12.786 7.59388 12.1415C6.94941 11.497 6.50119 10.6828 6.30139 9.79355C6.10159 8.9043 6.15841 7.9766 6.46525 7.11838L3.63275 4.28588C1.28975 6.36901 0 8.73676 0 8.73676C0 8.73676 4.125 16.2993 11 16.2993C12.3206 16.2947 13.6262 16.0195 14.8362 15.4908V15.4908ZM7.16375 1.98276C8.37382 1.45396 9.67944 1.1788 11 1.17426C17.875 1.17426 22 8.73676 22 8.73676C22 8.73676 20.7089 11.1031 18.3686 13.189L15.5334 10.3538C15.8402 9.49554 15.897 8.56783 15.6972 7.67858C15.4974 6.78933 15.0492 5.9751 14.4047 5.33063C13.7603 4.68616 12.946 4.23795 12.0568 4.03815C11.1675 3.83834 10.2398 3.89517 9.38162 4.20201L7.16375 1.98413V1.98276Z" fill="black"/>
<path d="M7.59687 8.25C7.52123 8.77843 7.56971 9.31721 7.73844 9.82365C7.90718 10.3301 8.19155 10.7903 8.56901 11.1677C8.94647 11.5452 9.40666 11.8296 9.9131 11.9983C10.4195 12.167 10.9583 12.2155 11.4867 12.1399L7.59549 8.25H7.59687ZM14.4031 9.2235L10.5132 5.33225C11.0417 5.25661 11.5805 5.30509 12.0869 5.47382C12.5933 5.64256 13.0535 5.92693 13.431 6.30439C13.8084 6.68185 14.0928 7.14204 14.2615 7.64848C14.4303 8.15492 14.4788 8.6937 14.4031 9.22212V9.2235ZM18.7632 17.4735L2.26324 0.9735L3.23674 0L19.7367 16.5L18.7632 17.4735Z" fill="black"/>
</svg>
