<svg width="15" height="22" viewBox="0 0 15 22" fill="none" xmlns="http://www.w3.org/2000/svg">
<path d="M4.125 19.25C4.125 18.8681 3.99132 18.5434 3.72396 18.276C3.4566 18.0087 3.13194 17.875 2.75 17.875C2.36806 17.875 2.0434 18.0087 1.77604 18.276C1.50868 18.5434 1.375 18.8681 1.375 19.25C1.375 19.6319 1.50868 19.9566 1.77604 20.224C2.0434 20.4913 2.36806 20.625 2.75 20.625C3.13194 20.625 3.4566 20.4913 3.72396 20.224C3.99132 19.9566 4.125 19.6319 4.125 19.25ZM4.125 2.75C4.125 2.36806 3.99132 2.0434 3.72396 1.77604C3.4566 1.50868 3.13194 1.375 2.75 1.375C2.36806 1.375 2.0434 1.50868 1.77604 1.77604C1.50868 2.0434 1.375 2.36806 1.375 2.75C1.375 3.13194 1.50868 3.4566 1.77604 3.72396C2.0434 3.99132 2.36806 4.125 2.75 4.125C3.13194 4.125 3.4566 3.99132 3.72396 3.72396C3.99132 3.4566 4.125 3.13194 4.125 2.75ZM13.2917 4.58333C13.2917 4.20139 13.158 3.87674 12.8906 3.60938C12.6233 3.34201 12.2986 3.20833 11.9167 3.20833C11.5347 3.20833 11.2101 3.34201 10.9427 3.60938C10.6753 3.87674 10.5417 4.20139 10.5417 4.58333C10.5417 4.96528 10.6753 5.28993 10.9427 5.55729C11.2101 5.82465 11.5347 5.95833 11.9167 5.95833C12.2986 5.95833 12.6233 5.82465 12.8906 5.55729C13.158 5.28993 13.2917 4.96528 13.2917 4.58333ZM14.6667 4.58333C14.6667 5.07986 14.5425 5.54058 14.2943 5.9655C14.046 6.39041 13.7118 6.72222 13.2917 6.96094C13.2726 9.70139 12.1936 11.678 10.0547 12.8906C9.41493 13.2535 8.44575 13.6402 7.14714 14.0508C5.92491 14.4327 5.11567 14.7717 4.7194 15.0677C4.32313 15.3637 4.125 15.8411 4.125 16.5V16.8724C4.54514 17.1111 4.87934 17.4429 5.1276 17.8678C5.37587 18.2928 5.5 18.7535 5.5 19.25C5.5 20.0139 5.23264 20.6632 4.69792 21.1979C4.16319 21.7326 3.51389 22 2.75 22C1.98611 22 1.33681 21.7326 0.802083 21.1979C0.267361 20.6632 0 20.0139 0 19.25C0 18.7535 0.124132 18.2928 0.372396 17.8678C0.62066 17.4429 0.954861 17.1111 1.375 16.8724V5.1276C0.954861 4.88889 0.62066 4.55707 0.372396 4.13216C0.124132 3.70725 0 3.24653 0 2.75C0 1.98611 0.267361 1.33681 0.802083 0.802083C1.33681 0.267361 1.98611 0 2.75 0C3.51389 0 4.16319 0.267361 4.69792 0.802083C5.23264 1.33681 5.5 1.98611 5.5 2.75C5.5 3.24653 5.37587 3.70725 5.1276 4.13216C4.87934 4.55707 4.54514 4.88889 4.125 5.1276V12.2461C4.64062 11.9978 5.37587 11.7257 6.33073 11.4297C6.8559 11.2674 7.27365 11.1265 7.58398 11.0072C7.89431 10.8878 8.2309 10.7398 8.59375 10.5632C8.9566 10.3865 9.23828 10.1979 9.4388 9.9974C9.63932 9.79688 9.83268 9.55339 10.0189 9.26693C10.2051 8.98047 10.3388 8.64865 10.4199 8.27148C10.5011 7.89431 10.5417 7.45747 10.5417 6.96094C10.1215 6.72222 9.78733 6.39041 9.53906 5.9655C9.2908 5.54058 9.16667 5.07986 9.16667 4.58333C9.16667 3.81944 9.43403 3.17014 9.96875 2.63542C10.5035 2.10069 11.1528 1.83333 11.9167 1.83333C12.6806 1.83333 13.3299 2.10069 13.8646 2.63542C14.3993 3.17014 14.6667 3.81944 14.6667 4.58333Z" fill="black"/>
</svg>
