<svg width="22" height="19" viewBox="0 0 22 19" fill="none" xmlns="http://www.w3.org/2000/svg">
<path d="M11 0C10.5877 -6.14394e-09 10.1794 0.081211 9.79848 0.238996C9.41755 0.396782 9.07144 0.628051 8.77989 0.919601C8.48834 1.21115 8.25707 1.55727 8.09928 1.9382C7.9415 2.31913 7.86029 2.7274 7.86029 3.13971C7.86029 3.55203 7.9415 3.9603 8.09928 4.34123C8.25707 4.72216 8.48834 5.06828 8.77989 5.35983C9.07144 5.65138 9.41755 5.88265 9.79848 6.04043C10.1794 6.19822 10.5877 6.27943 11 6.27943C11.8327 6.27943 12.6313 5.94864 13.2201 5.35983C13.8089 4.77102 14.1397 3.97242 14.1397 3.13971C14.1397 2.30701 13.8089 1.50841 13.2201 0.919601C12.6313 0.33079 11.8327 0 11 0ZM18.0714 1.56829C17.4463 1.56829 16.8467 1.81663 16.4047 2.25868C15.9626 2.70073 15.7143 3.30028 15.7143 3.92543C15.7143 4.55058 15.9626 5.15013 16.4047 5.59218C16.8467 6.03423 17.4463 6.28257 18.0714 6.28257C18.6966 6.28257 19.2961 6.03423 19.7382 5.59218C20.1802 5.15013 20.4286 4.55058 20.4286 3.92543C20.4286 3.30028 20.1802 2.70073 19.7382 2.25868C19.2961 1.81663 18.6966 1.56829 18.0714 1.56829ZM3.92857 1.56829C3.30342 1.56829 2.70387 1.81663 2.26182 2.25868C1.81977 2.70073 1.57143 3.30028 1.57143 3.92543C1.57143 4.55058 1.81977 5.15013 2.26182 5.59218C2.70387 6.03423 3.30342 6.28257 3.92857 6.28257C4.55372 6.28257 5.15327 6.03423 5.59532 5.59218C6.03737 5.15013 6.28571 4.55058 6.28571 3.92543C6.28571 3.30028 6.03737 2.70073 5.59532 2.25868C5.15327 1.81663 4.55372 1.56829 3.92857 1.56829ZM6.28571 9.41443C6.28862 8.99957 6.45546 8.60269 6.74985 8.31037C7.04423 8.01804 7.44227 7.85399 7.85714 7.854H14.1429C14.5596 7.854 14.9593 8.01956 15.254 8.31426C15.5487 8.60896 15.7143 9.00866 15.7143 9.42543V14.1397C15.7142 14.6343 15.6368 15.1258 15.4849 15.5964C15.1369 16.663 14.4201 17.5705 13.4632 18.1561C12.5064 18.7417 11.372 18.967 10.264 18.7916C9.15593 18.6161 8.14673 18.0514 7.41759 17.1988C6.68844 16.3462 6.28713 15.2616 6.28571 14.1397V9.41443ZM4.71429 9.42543C4.71429 8.85186 4.86671 8.316 5.13543 7.854H1.57143C1.15466 7.854 0.754961 8.01956 0.460261 8.31426C0.165561 8.60896 2.17506e-07 9.00866 2.17506e-07 9.42543V13.354C-0.000213789 13.9972 0.157498 14.6306 0.459286 15.1986C0.761074 15.7666 1.19771 16.2518 1.73084 16.6116C2.26397 16.9714 2.87729 17.1949 3.51695 17.2623C4.1566 17.3296 4.80302 17.239 5.39943 16.9981C4.94714 16.1128 4.71228 15.1324 4.71429 14.1381V9.42543ZM17.2857 9.42543V14.1397C17.2857 15.169 17.039 16.1401 16.6006 16.9981C17.197 17.239 17.8434 17.3296 18.4831 17.2623C19.1227 17.1949 19.736 16.9714 20.2692 16.6116C20.8023 16.2518 21.2389 15.7666 21.5407 15.1986C21.8425 14.6306 22.0002 13.9972 22 13.354V9.42543C22 9.00866 21.8344 8.60896 21.5397 8.31426C21.245 8.01956 20.8453 7.854 20.4286 7.854H16.8646C17.1317 8.316 17.2857 8.85186 17.2857 9.42543Z" fill="white"/>
</svg>
