<svg width="22" height="23" viewBox="0 0 22 23" fill="none" xmlns="http://www.w3.org/2000/svg">
<path d="M13.0638 22.6752H8.9369C8.67833 22.6753 8.4275 22.5869 8.22603 22.4248C8.02456 22.2628 7.88455 22.0367 7.82922 21.7841L7.36777 19.6481C6.75221 19.3784 6.16852 19.0411 5.62745 18.6424L3.54473 19.3057C3.29821 19.3843 3.03221 19.3762 2.79091 19.2828C2.54962 19.1894 2.34754 19.0162 2.21823 18.7921L0.150247 15.2196C0.022297 14.9953 -0.0257324 14.7342 0.0140172 14.479C0.0537667 14.2238 0.178942 13.9897 0.369063 13.8149L1.98467 12.341C1.9112 11.6733 1.9112 10.9996 1.98467 10.332L0.369063 8.86148C0.178672 8.68662 0.0533272 8.45228 0.0135712 8.19685C-0.0261849 7.94142 0.0220067 7.68007 0.150247 7.45562L2.21369 3.88087C2.343 3.65674 2.54508 3.48359 2.78638 3.39016C3.02768 3.29673 3.29367 3.28866 3.54019 3.36727L5.62292 4.03052C5.89955 3.82645 6.18753 3.63597 6.48457 3.46364C6.77142 3.30265 7.06619 3.15639 7.36777 3.02601L7.83035 0.89227C7.88542 0.639666 8.02517 0.413469 8.22643 0.251184C8.42768 0.0888981 8.67836 0.000272064 8.9369 0H13.0638C13.3223 0.000272064 13.573 0.0888981 13.7743 0.251184C13.9755 0.413469 14.1153 0.639666 14.1703 0.89227L14.6375 3.02714C15.2522 3.29842 15.8358 3.63561 16.3778 4.03279L18.4616 3.36954C18.708 3.29122 18.9737 3.29944 19.2148 3.39285C19.4558 3.48626 19.6577 3.65925 19.787 3.88313L21.8504 7.45788C22.1135 7.91933 22.0228 8.50321 21.6316 8.86262L20.016 10.3365C20.0895 11.0042 20.0895 11.6779 20.016 12.3455L21.6316 13.8194C22.0228 14.18 22.1135 14.7627 21.8504 15.2242L19.787 18.7989C19.6577 19.023 19.4556 19.1962 19.2143 19.2896C18.973 19.383 18.707 19.3911 18.4605 19.3125L16.3778 18.6492C15.8371 19.0476 15.2538 19.3845 14.6386 19.6538L14.1703 21.7841C14.1151 22.0365 13.9752 22.2624 13.774 22.4245C13.5727 22.5866 13.3222 22.675 13.0638 22.6752ZM10.9958 6.80257C9.79304 6.80257 8.63954 7.28037 7.78905 8.13085C6.93856 8.98134 6.46076 10.1348 6.46076 11.3376C6.46076 12.5404 6.93856 13.6939 7.78905 14.5444C8.63954 15.3949 9.79304 15.8727 10.9958 15.8727C12.1986 15.8727 13.3521 15.3949 14.2026 14.5444C15.0531 13.6939 15.5309 12.5404 15.5309 11.3376C15.5309 10.1348 15.0531 8.98134 14.2026 8.13085C13.3521 7.28037 12.1986 6.80257 10.9958 6.80257Z" fill="white"/>
</svg>
