<svg width="15" height="19" viewBox="0 0 15 19" fill="none" xmlns="http://www.w3.org/2000/svg">
<path d="M1.15385 5.76923V17.3077C1.15385 17.9423 1.67308 18.4615 2.30769 18.4615H12.6923C13.3269 18.4615 13.8462 17.9423 13.8462 17.3077V5.76923H1.15385ZM4.61538 16.1538H3.46154V8.07692H4.61538V16.1538ZM6.92308 16.1538H5.76923V8.07692H6.92308V16.1538ZM9.23077 16.1538H8.07692V8.07692H9.23077V16.1538ZM11.5385 16.1538H10.3846V8.07692H11.5385V16.1538ZM14.1346 2.30769H10.3846V0.865385C10.3837 0.636151 10.2922 0.416566 10.1301 0.254472C9.96805 0.0923783 9.74846 0.000911477 9.51923 0L5.48077 0C5.25154 0.000911477 5.03195 0.0923783 4.86986 0.254472C4.70776 0.416566 4.6163 0.636151 4.61538 0.865385V2.30769H0.865385C0.636058 2.3083 0.416297 2.39967 0.254138 2.56183C0.0919788 2.72399 0.000609105 2.94375 0 3.17308V4.61539H15V3.17308C14.9994 2.94375 14.908 2.72399 14.7459 2.56183C14.5837 2.39967 14.3639 2.3083 14.1346 2.30769ZM9.23077 2.30769H5.76923V1.16885H9.23077V2.30769Z" fill="black"/>
</svg>
