<svg width="22" height="22" viewBox="0 0 22 22" fill="none" xmlns="http://www.w3.org/2000/svg">
<path d="M9.20737 0.788145C9.72599 -0.262715 11.2253 -0.262715 11.7439 0.788145L14.2144 5.79414L19.739 6.59669C20.8988 6.76432 21.3619 8.19132 20.5227 9.00958L19.5735 9.93472C18.3986 9.274 17.054 8.97682 15.7101 9.0808C14.3661 9.18478 13.0833 9.68525 12.024 10.5188C10.9647 11.3524 10.1766 12.4816 9.75948 13.7634C9.34238 15.0452 9.31505 16.4219 9.68094 17.7193L5.53512 19.8985C4.49788 20.4433 3.28463 19.5632 3.4816 18.4076L4.42559 12.906L0.428549 9.00854C-0.410672 8.19132 0.0524188 6.76537 1.21224 6.59669L6.73686 5.79414L9.20737 0.788145ZM22 15.8732C22 14.3449 21.3929 12.8792 20.3122 11.7985C19.2316 10.7178 17.7659 10.1107 16.2376 10.1107C14.7093 10.1107 13.2436 10.7178 12.1629 11.7985C11.0822 12.8792 10.4751 14.3449 10.4751 15.8732C10.4751 17.4015 11.0822 18.8672 12.1629 19.9478C13.2436 21.0285 14.7093 21.6356 16.2376 21.6356C17.7659 21.6356 19.2316 21.0285 20.3122 19.9478C21.3929 18.8672 22 17.4015 22 15.8732ZM16.7614 16.397L16.7635 19.0195C16.7635 19.1584 16.7083 19.2917 16.6101 19.3899C16.5118 19.4881 16.3786 19.5433 16.2397 19.5433C16.1007 19.5433 15.9675 19.4881 15.8692 19.3899C15.771 19.2917 15.7158 19.1584 15.7158 19.0195V16.397H13.0913C12.9523 16.397 12.8191 16.3418 12.7208 16.2436C12.6226 16.1454 12.5674 16.0121 12.5674 15.8732C12.5674 15.7342 12.6226 15.601 12.7208 15.5028C12.8191 15.4045 12.9523 15.3493 13.0913 15.3493H15.7158L15.7147 12.729C15.7147 12.59 15.7699 12.4568 15.8682 12.3586C15.9664 12.2603 16.0997 12.2051 16.2386 12.2051C16.3775 12.2051 16.5108 12.2603 16.609 12.3586C16.7073 12.4568 16.7625 12.59 16.7625 12.729V15.3483H19.3786C19.5175 15.3483 19.6508 15.4035 19.749 15.5017C19.8473 15.6 19.9025 15.7332 19.9025 15.8721C19.9025 16.0111 19.8473 16.1443 19.749 16.2426C19.6508 16.3408 19.5175 16.396 19.3786 16.396H16.7635L16.7614 16.397Z" fill="black"/>
</svg>
